<svg xmlns="http://www.w3.org/2000/svg" width="1600" height="900" viewBox="0 0 1600 900">
  <defs>
    <linearGradient id="sky" x1="0" y1="0" x2="0" y2="1">
      <stop offset="0" stop-color="#1a2b4a"/><stop offset="1" stop-color="#0d1626"/>
    </linearGradient>
    <linearGradient id="b1" x1="0" y1="0" x2="0" y2="1">
      <stop offset="0" stop-color="#243757"/><stop offset="1" stop-color="#141f36"/>
    </linearGradient>
  </defs>
  <rect width="1600" height="900" fill="url(#sky)"/>
  <circle cx="1290" cy="150" r="60" fill="#d9bd7e" opacity="0.85"/>
  <rect x="120" y="240" width="300" height="660" rx="8" fill="url(#b1)"/>
  <rect x="480" y="150" width="380" height="750" rx="8" fill="#2b4166"/>
  <rect x="920" y="300" width="280" height="600" rx="8" fill="url(#b1)"/>
  <rect x="1260" y="380" width="220" height="520" rx="8" fill="#243757"/>
  <g fill="#e8c987" opacity="0.85">
    <rect x="150" y="280" width="34" height="22" rx="3"/><rect x="210" y="280" width="34" height="22" rx="3"/><rect x="270" y="280" width="34" height="22" rx="3"/><rect x="330" y="280" width="34" height="22" rx="3"/>
    <rect x="150" y="340" width="34" height="22" rx="3"/><rect x="270" y="340" width="34" height="22" rx="3"/><rect x="330" y="340" width="34" height="22" rx="3"/>
    <rect x="150" y="400" width="34" height="22" rx="3"/><rect x="210" y="400" width="34" height="22" rx="3"/><rect x="330" y="400" width="34" height="22" rx="3"/>
    <rect x="210" y="460" width="34" height="22" rx="3"/><rect x="270" y="460" width="34" height="22" rx="3"/>
    <rect x="510" y="190" width="40" height="26" rx="3"/><rect x="580" y="190" width="40" height="26" rx="3"/><rect x="650" y="190" width="40" height="26" rx="3"/><rect x="720" y="190" width="40" height="26" rx="3"/><rect x="790" y="190" width="40" height="26" rx="3"/>
    <rect x="510" y="260" width="40" height="26" rx="3"/><rect x="650" y="260" width="40" height="26" rx="3"/><rect x="790" y="260" width="40" height="26" rx="3"/>
    <rect x="580" y="330" width="40" height="26" rx="3"/><rect x="720" y="330" width="40" height="26" rx="3"/>
    <rect x="510" y="400" width="40" height="26" rx="3"/><rect x="650" y="400" width="40" height="26" rx="3"/><rect x="720" y="400" width="40" height="26" rx="3"/>
    <rect x="950" y="340" width="30" height="20" rx="3"/><rect x="1010" y="340" width="30" height="20" rx="3"/><rect x="1130" y="340" width="30" height="20" rx="3"/>
    <rect x="950" y="410" width="30" height="20" rx="3"/><rect x="1070" y="410" width="30" height="20" rx="3"/>
    <rect x="1290" y="420" width="28" height="18" rx="3"/><rect x="1350" y="420" width="28" height="18" rx="3"/><rect x="1410" y="420" width="28" height="18" rx="3"/>
    <rect x="1290" y="490" width="28" height="18" rx="3"/><rect x="1410" y="490" width="28" height="18" rx="3"/>
  </g>
  <g fill="#9db1d4" opacity="0.35">
    <rect x="210" y="340" width="34" height="22" rx="3"/><rect x="150" y="460" width="34" height="22" rx="3"/><rect x="330" y="460" width="34" height="22" rx="3"/>
    <rect x="580" y="260" width="40" height="26" rx="3"/><rect x="720" y="260" width="40" height="26" rx="3"/><rect x="510" y="330" width="40" height="26" rx="3"/>
    <rect x="650" y="330" width="40" height="26" rx="3"/><rect x="790" y="330" width="40" height="26" rx="3"/><rect x="580" y="400" width="40" height="26" rx="3"/>
    <rect x="1070" y="340" width="30" height="20" rx="3"/><rect x="1010" y="410" width="30" height="20" rx="3"/><rect x="1130" y="410" width="30" height="20" rx="3"/>
    <rect x="1350" y="490" width="28" height="18" rx="3"/>
  </g>
  <rect y="780" width="1600" height="120" fill="#0a1120"/>
  <rect y="770" width="1600" height="10" fill="#c3a15a" opacity="0.5"/>
</svg>
